<svg xmlns="http://www.w3.org/2000/svg" viewBox="20 30 180 165" width="100%" height="100%">
  <defs>
    <filter id="glow" x="-20%" y="-20%" width="140%" height="140%">
      <feDropShadow dx="0" dy="5" stdDeviation="10" flood-color="rgba(0,0,0,0.5)"/>
    </filter>
  </defs>

  <g filter="url(#glow)">
    <polygon points="190,90 140,80 135,95" fill="#003459" />
    
    <polygon points="135,95 140,80 110,70" fill="#f8f9fa" />
    
    <polygon points="140,80 100,40 110,70" fill="#00A8E8" />
    <polygon points="100,40 60,50 110,70" fill="#007EA7" />
    <polygon points="60,50 70,90 110,70" fill="#00A8E8" />
    <polygon points="110,70 70,90 85,95" fill="#007EA7" />
    
    <polygon points="60,50 30,110 70,90" fill="#00A8E8" />
    <polygon points="70,90 30,110 40,140" fill="#003459" />
    
    <polygon points="110,70 135,95 120,115 85,95" fill="#FF7B00" />
    <polygon points="120,115 90,160 70,130 85,95" fill="#FF9E00" />
    
    <polygon points="85,95 70,90 40,140 70,130" fill="rgb(180,80,180)" />
    
    <polygon points="40,140 70,130 90,160 60,180" fill="#7a287a" />

    <circle cx="123" cy="78" r="3.5" fill="#000000" />
    <circle cx="124" cy="77" r="1.5" fill="#ffffff" />
  </g>
</svg>